<!--?xml version="1.0" standalone="no"?-->

<svg version="1.0" xmlns="http://www.w3.org/2000/svg" width="300.000000pt" height="271.000000pt" viewBox="0 0 300.000000 271.000000" preserveAspectRatio="xMidYMid meet">
<g transform="translate(0.000000,271.000000) scale(0.100000,-0.100000)" fill="#3F1314" stroke="none">
<path class="node" id="node1" d="M1289 2625 c-333 -52 -645 -247 -823 -515 -95 -142 -111 -182 -80
-194 20 -8 17 -10 39 34 38 75 156 229 236 305 139 133 308 225 521 282 98 27
114 28 313 28 227 -1 283 -10 450 -72 269 -100 514 -306 640 -540 15 -29 31
-53 34 -53 8 0 61 49 61 56 0 15 -46 90 -98 160 -199 267 -513 454 -852 509
-115 18 -323 18 -441 0z"></path>
<path class="node" id="node2" d="M1507 2462 c-9 -10 -46 -81 -83 -158 -36 -76 -81 -170 -99 -209 -18
-38 -71 -153 -118 -255 -47 -102 -96 -210 -110 -240 -70 -153 -184 -429 -222
-541 -114 -332 -99 -516 52 -668 66 -65 166 -133 260 -174 212 -94 521 -90
848 11 181 56 357 184 512 370 l64 77 -58 6 -58 5 -73 -78 c-80 -85 -214 -190
-302 -237 -62 -33 -283 -94 -403 -110 -290 -40 -556 39 -716 214 -163 179
-122 378 249 1195 76 168 150 328 163 355 13 28 46 96 72 153 27 56 52 99 56
95 5 -5 22 -58 38 -118 16 -61 50 -184 74 -275 25 -91 68 -248 96 -350 27
-102 73 -268 101 -370 29 -102 63 -225 76 -274 13 -48 27 -92 30 -97 3 -5 1
-9 -4 -9 -5 0 -29 25 -52 56 -96 127 -230 238 -357 295 -79 37 -210 74 -286
83 -45 6 -37 1 69 -37 305 -110 461 -252 642 -587 22 -41 51 -81 65 -89 22
-13 28 -13 51 2 32 22 32 38 0 152 -32 117 -131 480 -154 570 -10 39 -39 149
-63 245 -99 383 -149 578 -167 645 -10 39 -33 124 -50 190 -17 66 -39 131 -49
145 -23 32 -71 38 -94 12z"></path>
<path class="node" id="node3" d="M291 2289 c-24 -5 -59 -19 -77 -31 -117 -80 -78 -222 118 -424 81
-83 108 -118 104 -131 -8 -25 28 -81 59 -93 14 -5 38 -7 55 -4 25 5 40 -1 86
-36 52 -39 58 -41 85 -30 16 7 29 16 29 20 0 5 -31 31 -70 60 -57 42 -70 57
-70 79 0 40 -40 73 -91 77 -37 2 -51 11 -111 71 -158 155 -223 279 -177 336
27 35 78 50 179 51 87 1 120 12 120 41 0 24 -146 32 -239 14z m247 -546 c2 -8
-6 -13 -22 -13 -25 0 -33 10 -19 24 10 10 36 3 41 -11z"></path>
<path class="node" id="node4" d="M2525 2293 c-43 -7 -50 -18 -27 -41 17 -17 33 -20 114 -19 148 1 201
-26 200 -104 -1 -52 -44 -126 -132 -221 -73 -80 -236 -223 -329 -289 -33 -24
-61 -46 -61 -49 0 -4 11 -13 25 -20 32 -17 44 -11 162 83 141 113 209 177 281
264 84 101 115 162 120 233 7 110 -61 160 -226 165 -53 2 -110 1 -127 -2z"></path>
<path class="node" id="node5" d="M693 2231 c-13 -11 -23 -22 -23 -25 0 -3 19 -10 43 -16 123 -31 302
-89 432 -140 115 -45 110 -45 123 -14 7 14 11 28 9 30 -10 10 -317 121 -416
150 -133 39 -138 40 -168 15z"></path>
<path class="node" id="node6" d="M2140 2207 c-164 -52 -362 -124 -385 -141 -13 -9 -14 -17 -6 -39 l10
-27 53 21 c185 73 237 92 339 123 63 19 131 37 152 41 39 8 45 19 23 48 -18
24 -33 22 -186 -26z"></path>
<path class="node" id="node7" d="M1560 1995 c-14 -17 -15 -17 23 -33 29 -13 34 -4 17 29 -13 23 -23
24 -40 4z"></path>
<path class="node" id="node8" d="M1422 1988 c-29 -29 -12 -45 101 -100 113 -56 128 -57 109 -7 -7 17
-38 39 -102 72 -50 26 -93 47 -94 47 -1 0 -7 -5 -14 -12z"></path>
<path class="node" id="node9" d="M1388 1898 c-19 -16 -41 -78 -27 -78 5 0 33 12 61 26 l52 26 -25 19
c-29 22 -40 23 -61 7z"></path>
<path class="node" id="node10" d="M2702 1797 l-32 -33 15 -44 c44 -125 58 -372 30 -531 -16 -96 -49
-196 -93 -289 -17 -35 -29 -66 -27 -69 3 -2 26 -6 53 -9 l48 -4 37 88 c88 214
116 432 83 651 -14 94 -64 273 -76 273 -3 0 -21 -15 -38 -33z"></path>
<path class="node" id="node11" d="M1810 1787 c0 -38 27 -64 128 -122 263 -152 450 -285 636 -450 52
-47 98 -85 101 -85 3 0 5 18 5 40 0 37 -5 43 -102 129 -114 99 -189 155 -383
283 -111 74 -370 228 -381 228 -2 0 -4 -10 -4 -23z"></path>
<path class="node" id="node12" d="M277 1698 c-39 -144 -50 -243 -44 -407 6 -157 25 -253 75 -366 34
-78 52 -106 64 -99 5 4 5 10 0 17 -5 7 -25 53 -45 102 -38 97 -67 257 -67 372
0 92 26 263 56 361 20 65 23 87 13 98 -6 8 -15 14 -19 14 -4 0 -19 -42 -33
-92z"></path>
<path class="node" id="node13" d="M999 1684 c-196 -114 -342 -216 -514 -359 -156 -131 -167 -144 -163
-193 l3 -41 95 90 c145 138 522 411 626 455 18 7 36 18 39 24 13 21 23 70 16
74 -4 3 -50 -20 -102 -50z"></path>
<path class="node" id="node14" d="M840 1470 c-25 -20 -25 -20 -5 -36 11 -8 40 -27 64 -42 42 -25 44
-25 57 -7 8 11 13 24 11 29 -3 10 -87 74 -97 75 -3 0 -16 -8 -30 -19z"></path>
<path class="node" id="node15" d="M2040 1413 c-91 -56 -105 -68 -105 -91 0 -37 22 -38 75 -4 25 16 70
43 100 61 31 18 67 41 80 51 25 19 25 19 5 34 -11 9 -27 15 -35 15 -8 -1 -62
-30 -120 -66z"></path>
<path class="node" id="node16" d="M1688 1212 l-88 -47 24 -23 24 -24 81 42 c44 23 81 47 81 52 0 14
-20 48 -28 48 -4 0 -46 -22 -94 -48z"></path>
<path class="node" id="node17" d="M1380 1063 c-30 -13 -131 -56 -223 -93 -164 -66 -196 -86 -197 -122
0 -22 1 -22 58 1 26 10 90 35 142 54 101 38 301 124 335 144 l20 12 -20 15
c-28 21 -51 19 -115 -11z"></path>
<path class="node" id="node18" d="M202 1027 c-23 -28 -52 -111 -52 -150 0 -140 157 -187 454 -137 70
12 139 26 151 32 20 9 40 56 29 67 -2 2 -43 -5 -91 -17 -175 -42 -337 -50
-422 -21 -18 6 -36 23 -45 44 -15 31 -15 37 1 82 14 37 16 56 9 81 -11 35 -18
39 -34 19z"></path>
<path class="node" id="node19" d="M2806 983 c-4 -21 -2 -53 3 -72 15 -48 -7 -95 -50 -110 -111 -39
-339 -12 -604 70 -37 11 -69 18 -72 15 -10 -10 9 -64 25 -69 399 -116 650
-128 739 -35 25 26 28 37 28 91 0 67 -28 147 -51 147 -7 0 -15 -17 -18 -37z"></path>
<path class="node" id="node20" d="M450 685 c0 -10 60 -105 67 -105 5 0 -44 89 -58 105 -5 5 -9 5 -9 0z"></path>
</g>
<g transform="translate(0.000000,271.000000) scale(0.100000,-0.100000)" fill="#AFA2A2" stroke="none">

<path class="node" id="node22" d="M497 1754 c-14 -14 -6 -24 19 -24 16 0 24 5 22 13 -5 14 -31 21 -41
11z"></path>
</g>
</svg>